<svg width="30" height="18" viewBox="0 0 30 18" fill="none" xmlns="http://www.w3.org/2000/svg">
<path fill-rule="evenodd" clip-rule="evenodd" d="M9.63643 0.367203C9.75283 0.483308 9.84518 0.621235 9.90819 0.773085C9.9712 0.924936 10.0036 1.08773 10.0036 1.25213C10.0036 1.41653 9.9712 1.57932 9.90819 1.73117C9.84518 1.88302 9.75283 2.02095 9.63643 2.13706L3.01948 8.75151L9.63643 15.366C9.75264 15.4822 9.84483 15.6201 9.90772 15.772C9.97061 15.9238 10.003 16.0865 10.003 16.2509C10.003 16.4152 9.97061 16.578 9.90772 16.7298C9.84483 16.8816 9.75264 17.0196 9.63643 17.1358C9.52022 17.252 9.38226 17.3442 9.23043 17.4071C9.07859 17.47 8.91585 17.5024 8.75151 17.5024C8.58716 17.5024 8.42442 17.47 8.27259 17.4071C8.12075 17.3442 7.98279 17.252 7.86658 17.1358L0.367204 9.63643C0.250805 9.52033 0.158456 9.3824 0.0954453 9.23055C0.0324344 9.0787 0 8.91591 0 8.75151C0 8.5871 0.0324344 8.42431 0.0954453 8.27246C0.158456 8.12061 0.250805 7.98268 0.367204 7.86658L7.86658 0.367203C7.98268 0.250805 8.12061 0.158455 8.27246 0.0954441C8.42431 0.0324333 8.5871 0 8.75151 0C8.91591 0 9.0787 0.0324333 9.23055 0.0954441C9.3824 0.158455 9.52033 0.250805 9.63643 0.367203Z" fill="white"/>
<path fill-rule="evenodd" clip-rule="evenodd" d="M1.25244 9.2499C1.25244 8.9184 1.38413 8.60049 1.61853 8.36609C1.85293 8.13169 2.17084 8 2.50234 8H28.7502C29.0816 8 29.3996 8.13169 29.634 8.36609C29.8684 8.60049 30.0001 8.9184 30.0001 9.2499C30.0001 9.58139 29.8684 9.89931 29.634 10.1337C29.3996 10.3681 29.0816 10.4998 28.7502 10.4998H2.50234C2.17084 10.4998 1.85293 10.3681 1.61853 10.1337C1.38413 9.89931 1.25244 9.58139 1.25244 9.2499Z" fill="white"/>
</svg>
