<svg width="13" height="14" viewBox="0 0 13 14" fill="none" xmlns="http://www.w3.org/2000/svg">
<path d="M10.6354 2.05828L8.92621 3.35054L9.54099 5.38884L7.76419 4.18318L5.9874 5.38884L6.60218 3.35054L4.89295 2.05828L7.04807 1.99833L7.76419 0L8.48032 1.99833L10.6354 2.05828ZM13 6.66112L11.892 7.49376L12.2906 8.81266L11.1421 8.03331L9.99363 8.81266L10.3922 7.49376L9.28427 6.66112L10.676 6.62781L11.1421 5.32889L11.6083 6.62781L13 6.66112ZM11.4597 9.95837C12.0204 9.90508 12.6217 10.6911 12.2636 11.1907C12.0474 11.4904 11.8177 11.7702 11.534 12.0366C8.89243 14.6545 4.61595 14.6545 1.98116 12.0366C-0.660387 9.4388 -0.660387 5.21565 1.98116 2.61782C2.2514 2.35137 2.53514 2.11157 2.83916 1.89842C3.34585 1.54538 4.14304 2.13822 4.089 2.69109C3.90659 4.59617 4.55515 6.57452 6.04144 8.03331C6.74379 8.72954 7.59413 9.26337 8.53111 9.59627C9.46808 9.92917 10.4683 10.0528 11.4597 9.95837ZM10.3517 11.3039C8.36839 11.1915 6.49477 10.3697 5.08211 8.99251C3.61608 7.53372 2.8324 5.66195 2.72431 3.78351C0.825906 5.8751 0.900221 9.08576 2.93374 11.0974C4.97402 13.1024 8.23035 13.1757 10.3517 11.3039Z" fill="#8C8FA5"/>
</svg>
