<svg width="26" height="23" viewBox="0 0 26 23" fill="none" xmlns="http://www.w3.org/2000/svg">
<path d="M25.1891 3.24568C24.1002 1.05443 20.9635 -0.738414 17.3148 0.305419C15.5713 0.799239 14.0501 1.85825 12.9998 3.30943C11.9495 1.85825 10.4283 0.799239 8.68481 0.305419C5.02802 -0.722477 1.89944 1.05443 0.810528 3.24568C-0.717197 6.31344 -0.0833537 9.76366 2.69581 13.5007C4.87363 16.4251 7.98596 19.3892 12.5041 22.8315C12.6469 22.9407 12.8228 23 13.0039 23C13.185 23 13.3609 22.9407 13.5036 22.8315C18.0137 19.3972 21.1341 16.4569 23.312 13.5007C26.083 9.76366 26.7168 6.31344 25.1891 3.24568Z" fill="#FBFBFB"/>
</svg>
