<svg width="16" height="12" viewBox="0 0 16 12" fill="none" xmlns="http://www.w3.org/2000/svg">
<path d="M0 7.83392C0 7.67384 0.0652895 7.52576 0.195868 7.3897C0.34277 7.26563 0.495792 7.2036 0.654935 7.2036H2.17291C2.34838 7.2036 2.49528 7.26563 2.61362 7.3897C2.73196 7.51376 2.79112 7.66183 2.79112 7.83392C2.79112 8.01801 2.73196 8.17209 2.61362 8.29615C2.49528 8.42021 2.34838 8.48224 2.17291 8.48224H0.654935C0.47947 8.48224 0.326447 8.41721 0.195868 8.28714C0.0652895 8.15708 0 8.006 0 7.83392ZM2.17291 2.72536C2.17291 2.55328 2.23004 2.4072 2.3443 2.28714C2.4912 2.16308 2.64422 2.10105 2.80337 2.10105C2.97475 2.10105 3.12369 2.16308 3.25019 2.28714L4.32135 3.34367C4.44376 3.48374 4.50497 3.63182 4.50497 3.78789C4.50497 3.96798 4.4458 4.11806 4.32747 4.23812C4.20913 4.35818 4.06631 4.41821 3.89901 4.41821C3.73986 4.41821 3.58684 4.35618 3.43994 4.23212L2.3443 3.1936C2.23004 3.05753 2.17291 2.90145 2.17291 2.72536ZM3.47666 11.3697C3.47666 11.1896 3.53991 11.0435 3.66641 10.9315C3.78067 10.8194 3.92961 10.7634 4.11324 10.7634H5.83321L7.86534 8.89045C7.93063 8.83842 8.00408 8.83842 8.08569 8.89045L10.1484 10.7634H11.9541C12.1296 10.7634 12.2795 10.8224 12.404 10.9405C12.5284 11.0585 12.5907 11.2016 12.5907 11.3697C12.5907 11.5418 12.5284 11.6898 12.404 11.8139C12.2795 11.938 12.1296 12 11.9541 12H9.74445C9.67916 12 9.61591 11.984 9.55471 11.952L7.98164 10.4993L6.42081 11.952C6.36776 11.984 6.30655 12 6.23718 12H4.11324C3.93777 12 3.78781 11.938 3.66335 11.8139C3.53889 11.6898 3.47666 11.5418 3.47666 11.3697ZM4.08263 7.83392C4.08263 8.45423 4.21729 9.01851 4.48661 9.52676C4.50293 9.6028 4.55802 9.64082 4.65187 9.64082H5.88217C5.93114 9.64082 5.96378 9.62281 5.98011 9.58679C5.99643 9.55078 5.99235 9.51076 5.96787 9.46673C5.55164 8.97449 5.34353 8.43022 5.34353 7.83392C5.34353 7.11356 5.60469 6.50125 6.12701 5.997C6.64932 5.49275 7.27774 5.24062 8.01224 5.24062C8.74267 5.24062 9.36598 5.49275 9.88217 5.997C10.3984 6.50125 10.6565 7.11356 10.6565 7.83392C10.6565 8.43422 10.4504 8.97849 10.0383 9.46673C10.0097 9.51076 10.0026 9.55078 10.0168 9.58679C10.0311 9.62281 10.0648 9.64082 10.1178 9.64082H11.3604C11.4461 9.64082 11.4971 9.6028 11.5134 9.52676C11.7827 9.03452 11.9174 8.47024 11.9174 7.83392C11.9174 7.31366 11.8133 6.81741 11.6052 6.34517C11.3971 5.87294 11.1186 5.46573 10.7697 5.12356C10.4208 4.78139 10.0056 4.50925 9.5241 4.30715C9.04259 4.10505 8.53864 4.004 8.01224 4.004C7.48176 4.004 6.97475 4.10505 6.4912 4.30715C6.00765 4.50925 5.58939 4.78139 5.23642 5.12356C4.88345 5.46573 4.60291 5.87294 4.3948 6.34517C4.18669 6.81741 4.08263 7.31366 4.08263 7.83392ZM7.36343 2.10105V0.630315C7.36343 0.446223 7.42464 0.295148 7.54705 0.177089C7.66947 0.0590295 7.82453 0 8.01224 0C8.19587 0 8.34787 0.06003 8.46825 0.18009C8.58862 0.30015 8.64881 0.450225 8.64881 0.630315V2.10105C8.64881 2.28514 8.58862 2.43622 8.46825 2.55428C8.34787 2.67234 8.19587 2.73137 8.01224 2.73137C7.82453 2.73137 7.66947 2.67234 7.54705 2.55428C7.42464 2.43622 7.36343 2.28514 7.36343 2.10105ZM11.5073 3.78789C11.5073 3.62781 11.5664 3.47974 11.6848 3.34367L12.7437 2.28714C12.8702 2.16308 13.0232 2.10105 13.2028 2.10105C13.3823 2.10105 13.5333 2.16208 13.6557 2.28414C13.7781 2.4062 13.8393 2.55328 13.8393 2.72536C13.8393 2.90945 13.7822 3.06553 13.6679 3.1936L12.5662 4.23212C12.4274 4.35618 12.2744 4.41821 12.1071 4.41821C11.9317 4.41821 11.7878 4.35918 11.6756 4.24112C11.5634 4.12306 11.5073 3.97199 11.5073 3.78789ZM13.215 7.83392C13.215 7.66183 13.2731 7.51376 13.3894 7.3897C13.5057 7.26563 13.6496 7.2036 13.821 7.2036H15.3573C15.5328 7.2036 15.6838 7.26563 15.8103 7.3897C15.9368 7.51376 16 7.66183 16 7.83392C16 8.01 15.9368 8.16208 15.8103 8.29014C15.6838 8.41821 15.5328 8.48224 15.3573 8.48224H13.821C13.6455 8.48224 13.5006 8.42021 13.3864 8.29615C13.2721 8.17209 13.215 8.01801 13.215 7.83392Z" fill="#555FD2"/>
</svg>
