<svg width="34" height="22" viewBox="0 0 34 22" fill="none" xmlns="http://www.w3.org/2000/svg">
<path d="M22.5559 11.974C25.7702 11.974 28.4001 9.34418 28.4001 6.12989C28.4001 2.91561 25.7702 0.285736 22.5559 0.285736C19.3417 0.285736 16.7118 2.91561 16.7118 6.12989C16.7118 9.34418 19.3417 11.974 22.5559 11.974ZM22.5559 1.25976C25.2345 1.25976 27.4261 3.45132 27.4261 6.12989C27.4261 8.80846 25.2345 11 22.5559 11C19.8774 11 17.6858 8.80846 17.6858 6.12989C17.6858 3.45132 19.8774 1.25976 22.5559 1.25976Z" fill="white"/>
<path d="M26.9388 12.9481H18.1725C14.666 12.9481 11.8414 15.7728 11.8414 19.2793V21.7144H12.8154V19.2793C12.8154 16.3085 15.2018 13.9221 18.1725 13.9221H26.9388C29.9096 13.9221 32.2959 16.3085 32.2959 19.2793V21.7144H33.2699V19.2793C33.2699 15.7728 30.4453 12.9481 26.9388 12.9481Z" fill="white"/>
<path d="M11.5145 12.0504C14.7498 12.0504 17.3968 9.40338 17.3968 6.16809C17.3968 2.9328 14.7498 0.285736 11.5145 0.285736C8.2792 0.285736 5.63214 2.9328 5.63214 6.16809C5.63214 9.40338 8.2792 12.0504 11.5145 12.0504ZM11.5145 1.26613C14.2106 1.26613 16.4165 3.47201 16.4165 6.16809C16.4165 8.86417 14.2106 11.0701 11.5145 11.0701C8.81842 11.0701 6.61253 8.86417 6.61253 6.16809C6.61253 3.47201 8.81842 1.26613 11.5145 1.26613Z" fill="white"/>
<path d="M15.9264 13.0309H7.1029C3.57348 13.0309 0.730347 15.874 0.730347 19.4034V21.8544H1.71074V19.4034C1.71074 16.4132 4.1127 14.0112 7.1029 14.0112H15.9264V13.0309Z" fill="white"/>
</svg>
