<svg width="22" height="14" viewBox="0 0 22 14" fill="none" xmlns="http://www.w3.org/2000/svg">
<path d="M14.1669 7.58676C16.2533 7.58676 17.9603 5.87974 17.9603 3.79338C17.9603 1.70702 16.2533 0 14.1669 0C12.0806 0 10.3735 1.70702 10.3735 3.79338C10.3735 5.87974 12.0806 7.58676 14.1669 7.58676ZM14.1669 0.63223C15.9055 0.63223 17.3281 2.05475 17.3281 3.79338C17.3281 5.53201 15.9055 6.95453 14.1669 6.95453C12.4283 6.95453 11.0058 5.53201 11.0058 3.79338C11.0058 2.05475 12.4283 0.63223 14.1669 0.63223Z" fill="#8C8FA5"/>
<path d="M17.0115 8.21899H11.3214C9.04538 8.21899 7.21191 10.0525 7.21191 12.3285V13.9091H7.84414V12.3285C7.84414 10.4002 9.39311 8.85122 11.3214 8.85122H17.0115C18.9398 8.85122 20.4887 10.4002 20.4887 12.3285V13.9091H21.121V12.3285C21.121 10.0525 19.2875 8.21899 17.0115 8.21899Z" fill="#8C8FA5"/>
<path d="M7.0003 7.63634C9.10029 7.63634 10.8185 5.91817 10.8185 3.81817C10.8185 1.71818 9.10029 0 7.0003 0C4.90031 0 3.18213 1.71818 3.18213 3.81817C3.18213 5.91817 4.90031 7.63634 7.0003 7.63634ZM7.0003 0.636362C8.7503 0.636362 10.1821 2.06818 10.1821 3.81817C10.1821 5.56817 8.7503 6.99998 7.0003 6.99998C5.25031 6.99998 3.81849 5.56817 3.81849 3.81817C3.81849 2.06818 5.25031 0.636362 7.0003 0.636362Z" fill="#8C8FA5"/>
<path d="M9.86361 8.27277H4.13635C1.84545 8.27277 0 10.1182 0 12.4091V14H0.636362V12.4091C0.636362 10.4682 2.19545 8.90913 4.13635 8.90913H9.86361V8.27277Z" fill="#8C8FA5"/>
</svg>
