<svg width="16" height="16" viewBox="0 0 16 16" fill="none" xmlns="http://www.w3.org/2000/svg">
<path d="M2.03813 0.858055L2.85034 0.345873C3.61292 -0.134152 4.61012 0.0652708 5.1832 0.8108L6.32188 2.29677C6.81765 2.94377 6.86853 3.84284 6.44568 4.51944L5.26991 6.4023C5.59447 7.26306 6.11784 8.05745 6.83839 8.78589C7.52687 9.49296 8.35025 10.0547 9.25974 10.4378L10.97 9.328C11.6191 8.90808 12.4623 8.98053 13.0622 9.50751L14.4623 10.7345C15.1608 11.3474 15.3356 12.3962 14.8708 13.189L14.3725 14.0388C13.8766 14.8844 12.9828 15.3764 12.0266 15.3288C9.76862 15.2177 7.34737 13.78 4.76206 11.0159C2.173 8.24754 0.845606 5.67251 0.781551 3.2939C0.754369 2.29298 1.23187 1.36606 2.03813 0.858055Z" fill="#555FD2"/>
</svg>
